<svg id="visual" viewBox="0 0 900 80" width="900" height="80" xmlns="http://www.w3.org/2000/svg" xmlns:xlink="http://www.w3.org/1999/xlink" version="1.1"><path d="M0 45L12.5 41C25 37 50 29 75 26.5C100 24 125 27 150 30.5C175 34 200 38 225 36C250 34 275 26 300 23C325 20 350 22 375 23.2C400 24.3 425 24.7 450 29.5C475 34.3 500 43.7 525 45C550 46.3 575 39.7 600 39.7C625 39.7 650 46.3 675 51.3C700 56.3 725 59.7 750 53.8C775 48 800 33 825 29.3C850 25.7 875 33.3 887.5 37.2L900 41L900 81L887.5 81C875 81 850 81 825 81C800 81 775 81 750 81C725 81 700 81 675 81C650 81 625 81 600 81C575 81 550 81 525 81C500 81 475 81 450 81C425 81 400 81 375 81C350 81 325 81 300 81C275 81 250 81 225 81C200 81 175 81 150 81C125 81 100 81 75 81C50 81 25 81 12.5 81L0 81Z" fill="#5E2802" stroke-linecap="round" stroke-linejoin="miter"></path></svg>